<?xml version="1.0" standalone="no"?>
<!DOCTYPE svg PUBLIC "-//W3C//DTD SVG 20010904//EN"
 "http://www.w3.org/TR/2001/REC-SVG-20010904/DTD/svg10.dtd">
<svg version="1.0" xmlns="http://www.w3.org/2000/svg"
 width="2500.000000pt" height="1562.000000pt" viewBox="0 0 2500.000000 1562.000000"
 preserveAspectRatio="xMidYMid meet">

<g transform="translate(0.000000,1562.000000) scale(0.100000,-0.100000)"
fill="#F4CDD4" stroke="none">
<path d="M9747 15602 c-10 -10 -17 -27 -17 -38 0 -24 371 -772 544 -1098 561
-1054 1225 -2145 1898 -3118 l108 -157 0 -65 0 -65 -62 -32 c-39 -20 -92 -62
-138 -109 -110 -111 -143 -184 -240 -535 -22 -82 -58 -185 -79 -230 -42 -88
-117 -194 -161 -225 l-28 -20 -163 79 c-914 439 -2247 733 -3839 846 -447 31
-580 36 -1140 42 -582 6 -940 -3 -1425 -32 -1561 -97 -2947 -360 -3818 -726
-431 -181 -795 -419 -918 -601 -54 -79 -140 -260 -177 -373 -60 -181 -85 -318
-86 -467 l-1 -136 57 -114 c143 -282 515 -805 750 -1053 186 -196 393 -334
953 -630 516 -273 722 -400 955 -588 111 -90 454 -436 730 -737 611 -665 952
-956 1361 -1161 203 -102 401 -167 617 -204 103 -18 370 -35 418 -28 l31 5 0
-124 c0 -170 14 -205 159 -407 14 -19 23 -42 22 -50 -2 -13 -62 -51 -100 -63
-19 -7 65 -353 123 -503 76 -199 163 -333 362 -559 162 -184 251 -302 317
-422 63 -114 138 -299 181 -451 l33 -112 106 0 c125 0 205 -12 326 -47 172
-49 313 -130 609 -348 206 -152 276 -177 605 -221 107 -14 231 -35 275 -46
109 -27 226 -88 344 -178 55 -42 134 -102 176 -134 144 -111 298 -177 414
-177 27 0 115 14 193 31 164 35 265 40 353 15 33 -9 155 -64 270 -122 294
-147 330 -149 500 -19 117 90 155 112 242 142 117 40 260 37 538 -12 263 -47
379 -51 477 -17 85 29 194 98 378 237 80 61 166 124 192 140 69 43 76 70 168
587 60 342 112 564 130 553 8 -5 10 -17 50 -460 34 -372 56 -563 71 -617 9
-34 17 -41 92 -78 45 -22 114 -47 152 -55 100 -21 260 -29 327 -17 70 14 129
0 353 -81 200 -73 283 -90 398 -85 115 5 179 34 262 118 l57 57 75 -29 c138
-54 227 -71 363 -72 141 -1 199 10 309 60 106 49 190 115 338 269 180 186 177
185 396 123 99 -29 127 -32 237 -33 123 0 126 1 187 33 123 67 201 165 338
422 72 137 150 236 209 267 23 13 68 18 177 22 l146 6 59 39 c87 58 190 162
330 332 178 218 296 323 452 405 63 33 66 33 235 39 183 6 201 11 265 65 25
21 38 48 67 143 181 592 351 944 587 1211 77 88 83 116 84 401 0 135 1 250 2
256 1 6 28 17 60 24 169 38 459 162 622 268 119 77 269 202 375 314 128 135
247 285 482 608 578 796 797 997 1846 1699 698 466 868 593 1116 836 222 217
348 384 452 600 145 301 185 567 130 870 -36 202 -71 347 -97 404 -110 243
-493 486 -1074 683 -629 212 -1587 387 -2510 458 -695 53 -1655 59 -2419 15
-2047 -119 -3955 -554 -5434 -1239 l-77 -36 -55 55 c-92 93 -131 196 -175 464
-28 170 -46 235 -87 313 -32 61 -102 138 -160 178 -22 15 -18 20 199 260 1143
1268 1887 2188 2510 3105 130 192 371 570 382 599 14 41 -43 83 -80 58 -6 -4
-53 -74 -105 -157 -455 -730 -1101 -1590 -1878 -2500 -314 -368 -1102 -1256
-1121 -1263 -4 -2 -17 12 -29 31 -33 53 -126 135 -183 162 -75 35 -112 33
-154 -9 l-34 -34 -138 201 c-868 1264 -1667 2623 -2280 3877 -79 162 -149 298
-155 302 -21 13 -53 9 -70 -10z"/>
</g>
</svg>
