<?xml version="1.0" standalone="no"?>
<!DOCTYPE svg PUBLIC "-//W3C//DTD SVG 20010904//EN"
 "http://www.w3.org/TR/2001/REC-SVG-20010904/DTD/svg10.dtd">
<svg version="1.0" xmlns="http://www.w3.org/2000/svg"
 width="2500.000000pt" height="1853.000000pt" viewBox="0 0 2500.000000 1853.000000"
 preserveAspectRatio="xMidYMid meet">

<g transform="translate(0.000000,1853.000000) scale(0.100000,-0.100000)"
fill="#F4CDD4" stroke="none">
<path d="M2160 18518 c-422 -29 -822 -108 -1008 -200 -104 -51 -181 -132 -245
-256 -86 -167 -134 -334 -227 -787 -82 -404 -129 -559 -208 -690 -22 -37 -97
-121 -196 -220 -130 -129 -168 -174 -198 -230 -40 -76 -63 -156 -74 -251 l-6
-61 148 -72 c288 -141 390 -168 531 -139 l73 14 0 -35 c1 -95 69 -183 291
-376 187 -163 262 -247 307 -342 23 -49 27 -71 27 -143 0 -93 -20 -151 -85
-245 l-32 -46 70 -73 c116 -123 180 -228 226 -375 75 -238 53 -519 -65 -816
-42 -105 -44 -115 -43 -205 1 -67 13 -145 38 -263 46 -214 49 -321 11 -434
-35 -104 -67 -154 -160 -253 -108 -114 -148 -165 -179 -228 l-27 -54 69 -73
c158 -165 239 -318 392 -740 152 -418 280 -604 527 -768 261 -174 557 -258
1043 -296 74 -6 306 -18 515 -26 540 -21 794 -42 1039 -86 123 -22 324 -68
344 -78 8 -4 -45 -36 -132 -79 -388 -190 -692 -402 -975 -677 -710 -690 -1096
-1646 -1180 -2919 -6 -88 -11 -314 -11 -504 l0 -345 128 -127 c70 -69 146
-151 169 -181 136 -177 191 -354 164 -530 -7 -41 -14 -81 -16 -89 -3 -10 13
-25 46 -45 72 -42 163 -143 205 -227 80 -158 111 -390 94 -691 -6 -94 -17
-254 -25 -356 -9 -102 -14 -259 -13 -348 l3 -163 190 -4 c145 -3 225 -10 338
-30 81 -14 194 -28 250 -32 l102 -7 35 -60 c48 -84 172 -204 288 -281 53 -35
178 -108 277 -161 374 -203 500 -302 604 -471 57 -94 111 -272 111 -369 l0
-33 68 -7 c834 -76 1534 -305 1858 -607 85 -80 98 -106 90 -180 -8 -79 0 -83
179 -83 158 0 201 12 313 85 192 123 323 338 567 925 211 508 321 703 494 876
118 117 175 147 351 184 348 73 395 92 504 198 237 232 407 583 636 1312 284
906 394 1163 583 1362 l70 74 21 -37 c29 -51 65 -75 120 -81 25 -3 46 -3 46 0
0 3 -7 39 -16 79 -21 97 -21 299 0 398 19 89 73 204 115 244 l29 28 25 -48
c34 -67 64 -169 85 -284 14 -81 16 -155 14 -520 -3 -559 15 -745 86 -886 74
-147 275 -418 387 -523 59 -55 70 -61 108 -61 137 0 325 205 482 525 125 254
143 362 165 990 10 290 25 405 66 537 30 94 79 198 94 198 17 0 68 -88 89
-154 54 -163 51 -369 -8 -488 l-18 -38 39 0 c49 0 82 17 133 69 44 46 53 48
97 25 38 -20 37 -17 351 -770 384 -919 498 -1176 693 -1559 77 -153 237 -451
248 -461 0 -1 55 -9 121 -17 287 -37 488 -136 672 -331 151 -160 258 -349 452
-800 210 -487 308 -654 485 -831 148 -147 279 -223 463 -271 l69 -17 144 148
c165 168 291 276 435 374 262 178 499 279 803 343 94 19 140 22 371 23 l263 2
115 219 c145 277 239 420 357 539 100 102 178 158 293 213 l76 36 81 -12 c133
-19 187 -16 227 13 19 14 113 106 209 204 184 187 252 240 360 279 128 47 256
38 411 -28 l69 -29 36 71 c84 167 85 327 3 679 -61 266 -78 409 -60 529 22
155 43 191 229 391 156 169 187 228 244 467 64 266 86 342 123 419 40 82 108
149 184 184 36 16 51 29 55 48 13 59 18 720 7 906 -48 772 -195 1367 -477
1935 -243 488 -555 886 -960 1224 -132 110 -304 236 -426 311 -43 26 -78 52
-78 56 0 13 121 71 234 114 273 101 533 144 1121 185 165 11 361 28 435 36
596 68 933 233 1155 569 97 146 156 282 269 613 115 336 180 481 289 651 51
78 58 95 45 102 -49 27 -138 104 -170 146 -120 158 -141 332 -87 713 15 104
23 208 23 315 1 183 -4 200 -95 332 -74 107 -91 151 -90 236 1 134 44 248 212
558 125 232 152 308 153 429 1 106 -13 149 -76 230 l-35 44 81 121 c167 249
257 293 433 215 l43 -19 10 42 c34 129 63 187 134 264 87 94 180 140 553 273
l122 44 7 44 c12 78 -1 166 -35 238 -37 78 -68 118 -209 269 -225 239 -279
373 -367 905 -73 438 -113 576 -204 707 -166 237 -530 419 -1023 512 -367 70
-833 80 -1191 26 -569 -86 -1235 -422 -2172 -1095 -476 -342 -1494 -1101
-1885 -1405 -948 -737 -2101 -1700 -2650 -2215 -542 -507 -1174 -1174 -1648
-1738 -88 -104 -113 -129 -118 -115 -28 87 -72 159 -137 228 l-45 46 340 557
c954 1560 1336 2226 1732 3012 275 545 428 882 615 1350 187 466 393 1069 375
1098 -17 26 -39 35 -67 28 -24 -6 -31 -21 -83 -184 -352 -1105 -896 -2268
-1719 -3677 -222 -380 -422 -713 -879 -1462 -335 -548 -401 -651 -415 -643 -9
5 -42 29 -73 55 -98 77 -133 170 -217 570 -53 253 -77 336 -119 422 -51 107
-53 105 -101 -105 -82 -361 -193 -746 -213 -740 -18 6 -59 95 -79 169 -10 39
-28 138 -39 220 -35 252 -66 344 -142 416 -18 18 -50 39 -70 47 l-37 16 -5
-33 c-2 -17 -9 -95 -15 -172 -22 -285 -69 -494 -146 -650 -70 -143 -166 -248
-210 -231 -7 2 -39 49 -70 103 -32 54 -237 400 -455 768 -1029 1736 -1408
2428 -1822 3325 -252 547 -520 1225 -653 1655 -20 66 -44 128 -53 138 -31 35
-92 11 -92 -38 0 -32 75 -262 177 -545 338 -937 787 -1884 1456 -3070 180
-320 420 -732 775 -1330 185 -311 404 -682 488 -824 l153 -260 -33 -36 c-18
-20 -52 -66 -76 -101 -53 -79 -99 -129 -120 -129 -62 0 -159 120 -445 550
-122 184 -246 367 -275 405 -196 261 -460 513 -1089 1039 -179 150 -351 295
-382 322 -30 27 -156 139 -280 249 -913 814 -1948 1633 -3291 2603 -1388 1003
-2172 1400 -2907 1472 -120 12 -411 11 -591 -2z"/>
</g>
</svg>
